<svg viewBox="0 0 512 512" fill="none" xmlns="http://www.w3.org/2000/svg"><path fill="#fff" d="M0 0h512v512H0z"/><path d="M321 347l12-25a19 19 0 1116 0l12 25h-40zm93-72v68a72 72 0 01-72 71H122a24 24 0 0123-25h16a64 64 0 01-14-41v-68h-23c-8 1-14-6-13-13 0-7 6-12 13-12h23v-23h-23a26 26 0 01-26-26v-11c1-40 33-73 74-73a24 24 0 0123-23v23h25a24 24 0 0124-23v112c0 19 6 38 19 53l4 4 2 3a94 94 0 0123 61v45c0 7 6 12 12 12h26a59 59 0 0059-58v-48c0-14-12-26-26-26h-56c-22 0-40-18-40-40v-48a70 70 0 0170-70h10c36 0 66 30 67 66a25 25 0 01-25 25v-18a48 48 0 10-97 0v38c0 12 10 22 22 22h56a43 43 0 0143 43zm-147 66c0-22-8-44-23-61v-1l-6-6a84 84 0 01-19-53v-64c0-5-4-9-9-9h-45a41 41 0 00-41 41v6c0 7 6 13 13 13h19a16 16 0 0115 16v126a40 40 0 0041 40h55v-48zm-95-179a13 13 0 10-1 25 13 13 0 001-25z" fill="#46c37b"/></svg>
