<svg viewBox="0 0 512 512" xmlns="http://www.w3.org/2000/svg"><path d="M357 397l18-40a29 29 0 1126 0l18 40h-62zm144-112v105a112 112 0 01-112 111H47a38 38 0 0136-39h25c-15-18-22-41-22-64V293H50a19 19 0 01-20-21 20 20 0 0120-18h36v-37H51a40 40 0 01-40-40v-17A114 114 0 01125 47a37 37 0 0136-37v37h39a37 37 0 0137-37v175c0 30 10 59 30 82l6 7 3 4c23 27 36 60 36 95v70a19 19 0 0019 19h40a91 91 0 0091-91v-74a41 41 0 00-40-41h-87a62 62 0 01-62-62v-75A109 109 0 01382 10h15a105 105 0 01104 104 39 39 0 01-39 39v-29a75 75 0 10-150 1v59a34 34 0 0034 33h88a67 67 0 0167 68zM273 387c0-34-12-68-35-95l-1-1-9-9c-19-23-30-52-30-83V99a14 14 0 00-14-14h-70a64 64 0 00-64 64v9a21 21 0 0021 21h29a25 25 0 0124 24v197a62 62 0 0063 62h86v-75zM125 109a19 19 0 10-1 39 19 19 0 001-39z" fill="#46c37b"/></svg>
